<?xml version="1.0" standalone="no"?>
<!DOCTYPE svg PUBLIC "-//W3C//DTD SVG 20010904//EN"
 "http://www.w3.org/TR/2001/REC-SVG-20010904/DTD/svg10.dtd">
<svg version="1.0" xmlns="http://www.w3.org/2000/svg"
 width="512.000000pt" height="512.000000pt" viewBox="0 0 512.000000 512.000000"
 preserveAspectRatio="xMidYMid meet">
<metadata>
Created by potrace 1.11, written by Peter Selinger 2001-2013
</metadata>
<g transform="translate(0.000000,512.000000) scale(0.100000,-0.100000)"
fill="#000000" stroke="none">
<path d="M2320 4344 c-164 -24 -331 -68 -439 -117 -25 -12 -49 -21 -52 -22
-12 0 -144 -70 -147 -77 -2 -5 -9 -8 -16 -8 -18 0 -176 -110 -264 -184 -347
-290 -580 -721 -630 -1164 -12 -116 -6 -399 11 -497 41 -224 73 -325 169 -521
162 -335 459 -632 804 -803 88 -44 243 -107 284 -116 8 -2 51 -12 95 -23 231
-59 531 -66 782 -18 70 14 223 60 302 91 576 228 996 737 1111 1348 32 168 34
469 4 632 -46 250 -134 475 -268 680 -240 369 -626 646 -1049 756 -209 54
-497 72 -697 43z"/>
</g>
</svg>
